<svg width="400" height="87" viewBox="0 0 400 87" fill="none" xmlns="http://www.w3.org/2000/svg">
<path d="M30.416 57.5V48.5H54.416V75C54.416 75 51.916 79.5 45.916 82.5C33.916 87 32.6145 86.5735 22.416 85.5C15.8136 84.805 10.916 81.7778 7.416 77.5C2.916 72 1.37572 65.405 0.415998 57C-0.0934968 52.538 -0.18207 49.951 0.415998 45.5C1.80003 35.1996 3.58208 27.7097 11.916 21.5C15.067 19.1521 17.1975 18.2705 20.916 17C31.2783 13.4597 48.916 18.5 48.916 18.5L46.916 29C46.916 29 39.7461 25.9346 34.916 26L34.836 26.0011C29.5638 26.0724 25.5122 26.1272 21.916 30C15.416 37 14.6481 45.517 15.416 55.5C15.916 62 15.916 66.5 20.416 71.5C23.2297 74.6264 26.2099 75.5 30.416 75.5C39.416 75.5 41.416 71.5 41.416 71.5V57.5H30.416Z" fill="#0AAB5E"/>
<path d="M64.916 85V16.5H106.916V26.5H80.916V45H100.916V55.5H80.916V75H106.916V85H64.916Z" fill="#0AAB5E"/>
<path d="M295.916 85V16.5H336.916V26.5H311.916V43.5H330.416V57H311.916V75H336.916V85H295.916Z" fill="#EF2B2C"/>
<path fill-rule="evenodd" clip-rule="evenodd" d="M117.916 16.5V84.4999H133.416V57H138.916L149.916 84.4999H167.416C167.416 84.4999 159.416 67.5 154.416 57C153.935 55.9906 153.279 54.2582 154.416 53.5C154.528 53.4255 154.644 53.349 154.763 53.27C157.855 51.2276 163.416 47.5532 163.416 36C163.416 26.7379 158.444 19.4084 150.416 17C145.416 15.5 117.916 16.5 117.916 16.5ZM133.416 26V47.5C133.416 47.5 147.916 50 147.916 36.5C147.916 23 133.416 26 133.416 26Z" fill="#0AAB5E"/>
<path fill-rule="evenodd" clip-rule="evenodd" d="M344.916 16.5V84.5H380.416C380.416 84.5 399.916 84 399.916 50.5C399.916 17 376.916 16.5 376.916 16.5H344.916ZM363.916 26.5V75H372.916C372.916 75 383.916 75 384.416 56V46C382.916 26.5 372.916 26.5 372.916 26.5H363.916Z" fill="#EF2B2C"/>
<path d="M282.416 84.5H268.416H267.916V46L246.916 84.5H238.916L218.916 46V84.5H213.916V56.5C213.916 56.5 213.916 54.5 212.416 53C210.916 51.5 208.916 51.5 208.916 51.5V17H219.916L245.916 66L272.416 17H282.416V84.5Z" fill="#EF2B2C"/>
<path d="M208.916 84.5H210.916V56C210.916 56 210.725 55.3087 210.416 55C209.979 54.5634 208.916 54.5 208.916 54.5V84.5Z" fill="#EF2B2C"/>
<path d="M177.916 84.5H186.416L192.916 39.5L203.416 54C203.416 54 202.416 56.5 202.916 57.5C203.361 58.3905 204.632 58.6142 205.416 58C206.05 57.5034 205.673 56.9701 205.916 56C206.369 54.1877 207.416 54.5 208.416 54C209.155 53.6303 208.416 51.5 208.416 51.5L191.916 22.5C191.916 22.5 188.916 17.5 183.916 17C179.911 16.5995 175.756 17.7244 173.416 21C170.916 24.5 170.416 32.5 170.416 32.5L169.916 53.5L175.416 56.5L177.916 84.5Z" fill="#0AAB5E"/>
<circle cx="192.416" cy="8.5" r="8.5" fill="#0AAB5E"/>
</svg>
