<svg title="Gerimed" width="400" height="118" viewBox="0 0 400 118" fill="none" xmlns="http://www.w3.org/2000/svg">
<g clip-path="url(#clip0)">
<path d="M30.416 57.5V48.5H54.416V75C54.416 75 51.916 79.5 45.916 82.5C33.916 87 32.6145 86.5735 22.416 85.5C15.8136 84.805 10.916 81.7778 7.416 77.5C2.916 72 1.37572 65.405 0.415998 57C-0.0934968 52.538 -0.18207 49.951 0.415998 45.5C1.80003 35.1996 3.58208 27.7097 11.916 21.5C15.067 19.1521 17.1975 18.2705 20.916 17C31.2783 13.4597 48.916 18.5 48.916 18.5L46.916 29C46.916 29 39.7461 25.9346 34.916 26L34.836 26.0011C29.5638 26.0724 25.5122 26.1272 21.916 30C15.416 37 14.6481 45.517 15.416 55.5C15.916 62 15.916 66.5 20.416 71.5C23.2297 74.6264 26.2099 75.5 30.416 75.5C39.416 75.5 41.416 71.5 41.416 71.5V57.5H30.416Z" fill="#0AAB5E"/>
<path d="M64.916 85V16.5H106.916V26.5H80.916V45H100.916V55.5H80.916V75H106.916V85H64.916Z" fill="#0AAB5E"/>
<path d="M295.916 85V16.5H336.916V26.5H311.916V43.5H330.416V57H311.916V75H336.916V85H295.916Z" fill="#EF2B2C"/>
<path fill-rule="evenodd" clip-rule="evenodd" d="M117.916 16.5V84.5H133.416V57H138.916L149.916 84.5H167.416C167.416 84.5 159.416 67.5 154.416 57C153.935 55.9906 153.279 54.2582 154.416 53.5C154.528 53.4255 154.644 53.349 154.763 53.27C157.855 51.2276 163.416 47.5532 163.416 36C163.416 26.7379 158.444 19.4084 150.416 17C145.416 15.5 117.916 16.5 117.916 16.5ZM133.416 26V47.5C133.416 47.5 147.916 50 147.916 36.5C147.916 23 133.416 26 133.416 26Z" fill="#0AAB5E"/>
<path fill-rule="evenodd" clip-rule="evenodd" d="M344.916 16.5V84.5H380.416C380.416 84.5 399.916 84 399.916 50.5C399.916 17 376.916 16.5 376.916 16.5H344.916ZM363.916 26.5V75H372.916C372.916 75 383.916 75 384.416 56V46C382.916 26.5 372.916 26.5 372.916 26.5H363.916Z" fill="#EF2B2C"/>
<path d="M282.416 84.5H268.416H267.916V46L246.916 84.5H238.916L218.916 46V84.5H213.916V56.5C213.916 56.5 213.916 54.5 212.416 53C210.916 51.5 208.916 51.5 208.916 51.5V17H219.916L245.916 66L272.416 17H282.416V84.5Z" fill="#EF2B2C"/>
<path d="M208.916 84.5H210.916V56C210.916 56 210.725 55.3087 210.416 55C209.979 54.5634 208.916 54.5 208.916 54.5V84.5Z" fill="#EF2B2C"/>
<path d="M177.916 84.5H186.416L192.916 39.5L203.416 54C203.416 54 202.416 56.5 202.916 57.5C203.361 58.3905 204.632 58.6142 205.416 58C206.05 57.5034 205.673 56.9701 205.916 56C206.369 54.1877 207.416 54.5 208.416 54C209.155 53.6303 208.416 51.5 208.416 51.5L191.916 22.5C191.916 22.5 188.916 17.5 183.916 17C179.911 16.5994 175.756 17.7244 173.416 21C170.916 24.5 170.416 32.5 170.416 32.5L169.916 53.5L175.416 56.5L177.916 84.5Z" fill="#0AAB5E"/>
<circle cx="192.416" cy="8.5" r="8.5" fill="#0AAB5E"/>
<path d="M4.58064 98.608C6.44834 98.608 7.90024 98.9942 8.93634 99.7667C9.97243 100.539 10.4905 101.684 10.4905 103.202C10.4905 104.788 9.97925 105.987 8.95679 106.801C7.94796 107.6 6.59149 108 4.88738 108H3.35368V112.696H0V98.608H4.58064ZM4.60109 105.601C5.3918 105.601 5.99164 105.418 6.40063 105.052C6.82324 104.673 7.03455 104.056 7.03455 103.202C7.03455 101.725 6.20295 100.986 4.53974 100.986H3.35368V105.601H4.60109Z" fill="#FF0000"/>
<path d="M17.6902 101.596C18.0856 101.596 18.4469 101.644 18.774 101.739L18.2628 104.849C17.8538 104.754 17.5266 104.707 17.2812 104.707C16.6405 104.707 16.1497 104.93 15.8089 105.378C15.4817 105.811 15.2227 106.469 15.0318 107.35V112.696H11.8008V101.901H14.6228L14.8887 103.995C15.1341 103.25 15.5022 102.667 15.9929 102.247C16.4974 101.813 17.0631 101.596 17.6902 101.596Z" fill="#FF0000"/>
<path d="M23.2395 101.901V112.696H20.0085V101.901H23.2395ZM21.6036 96.2091C22.1625 96.2091 22.6192 96.3853 22.9737 96.7377C23.3417 97.0765 23.5258 97.5102 23.5258 98.0388C23.5258 98.5673 23.3417 99.0078 22.9737 99.3602C22.6192 99.699 22.1625 99.8684 21.6036 99.8684C21.0446 99.8684 20.5879 99.699 20.2334 99.3602C19.879 99.0078 19.7018 98.5673 19.7018 98.0388C19.7018 97.5102 19.879 97.0765 20.2334 96.7377C20.5879 96.3853 21.0446 96.2091 21.6036 96.2091Z" fill="#FF0000"/>
<path d="M35.1252 101.901L31.7101 112.696H27.8861L24.3893 101.901H27.9066L29.8288 110.257L31.8328 101.901H35.1252Z" fill="#FF0000"/>
<path d="M44.4344 109.565C44.4344 109.972 44.4889 110.27 44.598 110.46C44.7207 110.65 44.9115 110.792 45.1706 110.887L44.4957 112.981C43.8277 112.926 43.2824 112.784 42.8598 112.554C42.4372 112.31 42.11 111.93 41.8782 111.415C41.1693 112.5 40.0787 113.042 38.6063 113.042C37.5293 113.042 36.6705 112.73 36.0297 112.107C35.389 111.483 35.0686 110.67 35.0686 109.667C35.0686 108.488 35.5049 107.587 36.3774 106.963C37.2499 106.34 38.5109 106.028 40.1605 106.028H41.2647V105.561C41.2647 104.924 41.1284 104.49 40.8558 104.259C40.5831 104.016 40.1059 103.894 39.4243 103.894C39.0698 103.894 38.6404 103.948 38.136 104.056C37.6316 104.151 37.1135 104.287 36.5819 104.463L35.8457 102.349C36.5273 102.091 37.2226 101.895 37.9315 101.759C38.654 101.623 39.3221 101.556 39.9355 101.556C41.4897 101.556 42.628 101.874 43.3506 102.511C44.0731 103.148 44.4344 104.104 44.4344 105.378V109.565ZM39.547 110.744C40.2832 110.744 40.8558 110.399 41.2647 109.708V107.797H40.4672C39.731 107.797 39.1789 107.925 38.8108 108.183C38.4564 108.441 38.2791 108.84 38.2791 109.382C38.2791 109.816 38.3882 110.155 38.6063 110.399C38.8381 110.629 39.1516 110.744 39.547 110.744Z" fill="#FF0000"/>
<path d="M55.5377 109.565C55.5377 109.972 55.5922 110.27 55.7013 110.46C55.824 110.65 56.0148 110.792 56.2739 110.887L55.599 112.981C54.931 112.926 54.3857 112.784 53.9631 112.554C53.5405 112.31 53.2133 111.93 52.9815 111.415C52.2726 112.5 51.182 113.042 49.7097 113.042C48.6327 113.042 47.7738 112.73 47.133 112.107C46.4923 111.483 46.1719 110.67 46.1719 109.667C46.1719 108.488 46.6082 107.587 47.4807 106.963C48.3532 106.34 49.6142 106.028 51.2638 106.028H52.3681V105.561C52.3681 104.924 52.2317 104.49 51.9591 104.259C51.6864 104.016 51.2093 103.894 50.5276 103.894C50.1732 103.894 49.7437 103.948 49.2393 104.056C48.7349 104.151 48.2169 104.287 47.6852 104.463L46.949 102.349C47.6306 102.091 48.3259 101.895 49.0348 101.759C49.7574 101.623 50.4254 101.556 51.0389 101.556C52.593 101.556 53.7313 101.874 54.4539 102.511C55.1764 103.148 55.5377 104.104 55.5377 105.378V109.565ZM50.6503 110.744C51.3865 110.744 51.9591 110.399 52.3681 109.708V107.797H51.5705C50.8344 107.797 50.2822 107.925 49.9141 108.183C49.5597 108.441 49.3825 108.84 49.3825 109.382C49.3825 109.816 49.4915 110.155 49.7097 110.399C49.9414 110.629 50.255 110.744 50.6503 110.744Z" fill="#FF0000"/>
<path d="M64.9209 112.188C64.5255 112.459 64.062 112.669 63.5303 112.818C63.0123 112.967 62.4942 113.042 61.9762 113.042C59.6041 113.028 58.418 111.727 58.418 109.138V104.138H56.8843V101.901H58.418V99.5634L61.649 99.1975V101.901H64.1438L63.7962 104.138H61.649V109.098C61.649 109.599 61.7308 109.958 61.8944 110.175C62.058 110.392 62.317 110.501 62.6715 110.501C63.0396 110.501 63.4281 110.385 63.8371 110.155L64.9209 112.188Z" fill="#FF0000"/>
<path d="M78.4593 105.235C79.3999 105.411 80.1634 105.757 80.7496 106.272C81.3494 106.787 81.6494 107.56 81.6494 108.59C81.6494 110.094 81.104 111.158 80.0134 111.781C78.9364 112.391 77.4232 112.696 75.4737 112.696H70.9135V98.608H74.9215C76.9119 98.608 78.432 98.8926 79.4817 99.4618C80.5315 100.017 81.0563 100.932 81.0563 102.206C81.0563 103.033 80.8041 103.704 80.2997 104.219C79.8089 104.72 79.1954 105.059 78.4593 105.235ZM74.2672 100.966V104.239H75.5146C76.9324 104.239 77.6413 103.67 77.6413 102.531C77.6413 101.962 77.4504 101.562 77.0687 101.332C76.687 101.088 76.0803 100.966 75.2487 100.966H74.2672ZM75.4941 110.277C76.3803 110.277 77.0483 110.148 77.4982 109.891C77.9617 109.62 78.1934 109.125 78.1934 108.407C78.1934 107.106 77.3755 106.455 75.7395 106.455H74.2672V110.277H75.4941Z" fill="#FF0000"/>
<path d="M92.9412 107.085C92.9412 107.532 92.9208 107.919 92.8799 108.244H86.152C86.2611 109.152 86.5201 109.789 86.9291 110.155C87.3381 110.521 87.9039 110.704 88.6264 110.704C89.0627 110.704 89.4853 110.629 89.8943 110.48C90.3032 110.318 90.7463 110.074 91.2235 109.748L92.5527 111.537C91.2848 112.54 89.8738 113.042 88.3197 113.042C86.561 113.042 85.2114 112.527 84.2707 111.497C83.33 110.467 82.8597 109.084 82.8597 107.35C82.8597 106.252 83.0574 105.269 83.4527 104.402C83.8481 103.521 84.4275 102.83 85.1909 102.328C85.9544 101.813 86.8678 101.556 87.9311 101.556C89.4989 101.556 90.7259 102.044 91.612 103.019C92.4981 103.995 92.9412 105.35 92.9412 107.085ZM89.7716 106.17C89.7443 104.517 89.1581 103.69 88.0129 103.69C87.454 103.69 87.0177 103.894 86.7042 104.3C86.4042 104.707 86.2202 105.378 86.152 106.313H89.7716V106.17Z" fill="#FF0000"/>
<path d="M97.9668 111.476C97.9668 112.601 97.7827 113.53 97.4146 114.261C97.0602 114.993 96.5694 115.576 95.9423 116.01C95.3288 116.457 94.5517 116.85 93.6111 117.189L92.5273 114.851C93.0589 114.607 93.4747 114.37 93.7747 114.139C94.0746 113.909 94.3064 113.597 94.4699 113.204C94.6472 112.825 94.7358 112.317 94.7358 111.68V101.901H97.9668V111.476ZM96.3513 96.2091C96.9102 96.2091 97.3669 96.3853 97.7214 96.7377C98.0895 97.0765 98.2735 97.5102 98.2735 98.0388C98.2735 98.5673 98.0895 99.0078 97.7214 99.3602C97.3669 99.699 96.9102 99.8684 96.3513 99.8684C95.7923 99.8684 95.3356 99.699 94.9812 99.3602C94.6267 99.0078 94.4495 98.5673 94.4495 98.0388C94.4495 97.5102 94.6267 97.0765 94.9812 96.7377C95.3356 96.3853 95.7923 96.2091 96.3513 96.2091Z" fill="#FF0000"/>
<path d="M109.137 109.565C109.137 109.972 109.192 110.27 109.301 110.46C109.423 110.65 109.614 110.792 109.873 110.887L109.199 112.981C108.531 112.926 107.985 112.784 107.563 112.554C107.14 112.31 106.813 111.93 106.581 111.415C105.872 112.5 104.781 113.042 103.309 113.042C102.232 113.042 101.373 112.73 100.733 112.107C100.092 111.483 99.7714 110.67 99.7714 109.667C99.7714 108.488 100.208 107.587 101.08 106.963C101.953 106.34 103.214 106.028 104.863 106.028H105.968V105.561C105.968 104.924 105.831 104.49 105.559 104.259C105.286 104.016 104.809 103.894 104.127 103.894C103.773 103.894 103.343 103.948 102.839 104.056C102.334 104.151 101.816 104.287 101.285 104.463L100.548 102.349C101.23 102.091 101.925 101.895 102.634 101.759C103.357 101.623 104.025 101.556 104.638 101.556C106.192 101.556 107.331 101.874 108.053 102.511C108.776 103.148 109.137 104.104 109.137 105.378V109.565ZM104.25 110.744C104.986 110.744 105.559 110.399 105.968 109.708V107.797H105.17C104.434 107.797 103.882 107.925 103.514 108.183C103.159 108.441 102.982 108.84 102.982 109.382C102.982 109.816 103.091 110.155 103.309 110.399C103.541 110.629 103.854 110.744 104.25 110.744Z" fill="#FF0000"/>
<path d="M120.241 109.565C120.241 109.972 120.295 110.27 120.404 110.46C120.527 110.65 120.718 110.792 120.977 110.887L120.302 112.981C119.634 112.926 119.089 112.784 118.666 112.554C118.243 112.31 117.916 111.93 117.684 111.415C116.975 112.5 115.885 113.042 114.412 113.042C113.335 113.042 112.477 112.73 111.836 112.107C111.195 111.483 110.875 110.67 110.875 109.667C110.875 108.488 111.311 107.587 112.184 106.963C113.056 106.34 114.317 106.028 115.967 106.028H117.071V105.561C117.071 104.924 116.935 104.49 116.662 104.259C116.389 104.016 115.912 103.894 115.23 103.894C114.876 103.894 114.447 103.948 113.942 104.056C113.438 104.151 112.92 104.287 112.388 104.463L111.652 102.349C112.333 102.091 113.029 101.895 113.738 101.759C114.46 101.623 115.128 101.556 115.742 101.556C117.296 101.556 118.434 101.874 119.157 102.511C119.879 103.148 120.241 104.104 120.241 105.378V109.565ZM115.353 110.744C116.089 110.744 116.662 110.399 117.071 109.708V107.797H116.273C115.537 107.797 114.985 107.925 114.617 108.183C114.263 108.441 114.085 108.84 114.085 109.382C114.085 109.816 114.194 110.155 114.412 110.399C114.644 110.629 114.958 110.744 115.353 110.744Z" fill="#FF0000"/>
<path d="M128.703 101.596C129.099 101.596 129.46 101.644 129.787 101.739L129.276 104.849C128.867 104.754 128.54 104.707 128.294 104.707C127.654 104.707 127.163 104.93 126.822 105.378C126.495 105.811 126.236 106.469 126.045 107.35V112.696H122.814V101.901H125.636L125.902 103.995C126.147 103.25 126.515 102.667 127.006 102.247C127.511 101.813 128.076 101.596 128.703 101.596Z" fill="#FF0000"/>
<path d="M134.606 101.556C135.383 101.556 136.113 101.671 136.794 101.901C137.476 102.132 138.076 102.457 138.594 102.877L137.408 104.686C136.522 104.131 135.629 103.853 134.729 103.853C134.306 103.853 133.979 103.927 133.747 104.077C133.529 104.212 133.42 104.409 133.42 104.666C133.42 104.869 133.468 105.039 133.563 105.174C133.672 105.296 133.884 105.425 134.197 105.561C134.511 105.696 134.995 105.859 135.649 106.048C136.781 106.374 137.619 106.801 138.164 107.329C138.723 107.844 139.003 108.562 139.003 109.484C139.003 110.216 138.791 110.853 138.369 111.395C137.946 111.924 137.367 112.33 136.631 112.615C135.894 112.899 135.076 113.042 134.177 113.042C133.263 113.042 132.411 112.899 131.621 112.615C130.843 112.33 130.182 111.937 129.637 111.436L131.212 109.687C132.125 110.392 133.086 110.744 134.095 110.744C134.586 110.744 134.967 110.656 135.24 110.48C135.526 110.304 135.67 110.053 135.67 109.728C135.67 109.471 135.615 109.267 135.506 109.118C135.397 108.969 135.186 108.834 134.872 108.712C134.558 108.576 134.061 108.413 133.379 108.224C132.302 107.912 131.498 107.478 130.966 106.923C130.434 106.367 130.169 105.676 130.169 104.849C130.169 104.226 130.346 103.67 130.7 103.182C131.068 102.681 131.586 102.288 132.254 102.003C132.936 101.705 133.72 101.556 134.606 101.556Z" fill="#FF0000"/>
<path d="M150.401 97.6118V112.696H147.538L147.375 111.436C146.611 112.506 145.582 113.042 144.287 113.042C142.937 113.042 141.908 112.527 141.199 111.497C140.504 110.467 140.156 109.057 140.156 107.268C140.156 106.17 140.34 105.188 140.708 104.32C141.076 103.453 141.594 102.775 142.262 102.288C142.944 101.8 143.721 101.556 144.594 101.556C145.63 101.556 146.489 101.895 147.17 102.572V97.2663L150.401 97.6118ZM145.289 110.683C146.039 110.683 146.666 110.277 147.17 109.464V104.808C146.911 104.497 146.645 104.266 146.373 104.117C146.114 103.968 145.814 103.894 145.473 103.894C144.873 103.894 144.396 104.171 144.041 104.727C143.687 105.283 143.51 106.137 143.51 107.289C143.51 108.549 143.66 109.43 143.96 109.931C144.273 110.433 144.716 110.683 145.289 110.683Z" fill="#FF0000"/>
<path d="M162.397 107.085C162.397 107.532 162.376 107.919 162.336 108.244H155.608C155.717 109.152 155.976 109.789 156.385 110.155C156.794 110.521 157.36 110.704 158.082 110.704C158.518 110.704 158.941 110.629 159.35 110.48C159.759 110.318 160.202 110.074 160.679 109.748L162.008 111.537C160.74 112.54 159.329 113.042 157.775 113.042C156.017 113.042 154.667 112.527 153.726 111.497C152.786 110.467 152.315 109.084 152.315 107.35C152.315 106.252 152.513 105.269 152.908 104.402C153.304 103.521 153.883 102.83 154.647 102.328C155.41 101.813 156.323 101.556 157.387 101.556C158.955 101.556 160.182 102.044 161.068 103.019C161.954 103.995 162.397 105.35 162.397 107.085ZM159.227 106.17C159.2 104.517 158.614 103.69 157.469 103.69C156.91 103.69 156.473 103.894 156.16 104.3C155.86 104.707 155.676 105.378 155.608 106.313H159.227V106.17Z" fill="#FF0000"/>
<path d="M168.036 101.556C168.813 101.556 169.542 101.671 170.224 101.901C170.906 102.132 171.505 102.457 172.024 102.877L170.837 104.686C169.951 104.131 169.058 103.853 168.159 103.853C167.736 103.853 167.409 103.927 167.177 104.077C166.959 104.212 166.85 104.409 166.85 104.666C166.85 104.869 166.898 105.039 166.993 105.174C167.102 105.296 167.313 105.425 167.627 105.561C167.94 105.696 168.424 105.859 169.079 106.048C170.21 106.374 171.049 106.801 171.594 107.329C172.153 107.844 172.433 108.562 172.433 109.484C172.433 110.216 172.221 110.853 171.799 111.395C171.376 111.924 170.797 112.33 170.06 112.615C169.324 112.899 168.506 113.042 167.606 113.042C166.693 113.042 165.841 112.899 165.05 112.615C164.273 112.33 163.612 111.937 163.067 111.436L164.641 109.687C165.555 110.392 166.516 110.744 167.525 110.744C168.015 110.744 168.397 110.656 168.67 110.48C168.956 110.304 169.099 110.053 169.099 109.728C169.099 109.471 169.045 109.267 168.936 109.118C168.827 108.969 168.615 108.834 168.302 108.712C167.988 108.576 167.491 108.413 166.809 108.224C165.732 107.912 164.928 107.478 164.396 106.923C163.864 106.367 163.598 105.676 163.598 104.849C163.598 104.226 163.776 103.67 164.13 103.182C164.498 102.681 165.016 102.288 165.684 102.003C166.366 101.705 167.15 101.556 168.036 101.556Z" fill="#FF0000"/>
<path d="M178.8 101.556C180.464 101.556 181.766 102.064 182.706 103.08C183.647 104.083 184.117 105.493 184.117 107.309C184.117 108.461 183.899 109.471 183.463 110.338C183.04 111.192 182.427 111.856 181.622 112.33C180.832 112.804 179.891 113.042 178.8 113.042C177.151 113.042 175.849 112.54 174.895 111.537C173.954 110.521 173.484 109.105 173.484 107.289C173.484 106.137 173.695 105.134 174.118 104.28C174.554 103.412 175.167 102.742 175.958 102.267C176.762 101.793 177.71 101.556 178.8 101.556ZM178.8 103.914C178.146 103.914 177.655 104.192 177.328 104.747C177.001 105.289 176.837 106.137 176.837 107.289C176.837 108.468 176.994 109.328 177.308 109.87C177.635 110.412 178.132 110.683 178.8 110.683C179.455 110.683 179.946 110.412 180.273 109.87C180.6 109.315 180.764 108.461 180.764 107.309C180.764 106.13 180.6 105.269 180.273 104.727C179.959 104.185 179.468 103.914 178.8 103.914Z" fill="#FF0000"/>
<path d="M191.929 101.596C192.324 101.596 192.685 101.644 193.012 101.739L192.501 104.849C192.092 104.754 191.765 104.707 191.52 104.707C190.879 104.707 190.388 104.93 190.047 105.378C189.72 105.811 189.461 106.469 189.27 107.35V112.696H186.039V101.901H188.861L189.127 103.995C189.372 103.25 189.74 102.667 190.231 102.247C190.736 101.813 191.301 101.596 191.929 101.596Z" fill="#FF0000"/>
<path d="M204.007 102.531C203.298 102.816 202.255 102.958 200.878 102.958C201.587 103.257 202.105 103.622 202.432 104.056C202.759 104.49 202.923 105.052 202.923 105.744C202.923 106.435 202.739 107.058 202.371 107.614C202.003 108.156 201.471 108.583 200.776 108.895C200.094 109.206 199.29 109.362 198.363 109.362C197.927 109.362 197.511 109.321 197.115 109.24C197.006 109.294 196.918 109.382 196.85 109.504C196.795 109.613 196.768 109.728 196.768 109.85C196.768 110.053 196.843 110.216 196.993 110.338C197.156 110.446 197.477 110.501 197.954 110.501H199.59C200.421 110.501 201.151 110.636 201.778 110.907C202.405 111.178 202.889 111.551 203.23 112.025C203.571 112.5 203.741 113.035 203.741 113.631C203.741 114.756 203.25 115.63 202.269 116.254C201.301 116.891 199.897 117.209 198.056 117.209C196.734 117.209 195.691 117.067 194.927 116.782C194.164 116.511 193.625 116.125 193.312 115.623C193.012 115.122 192.862 114.492 192.862 113.733H195.766C195.766 114.058 195.827 114.316 195.95 114.505C196.086 114.695 196.325 114.837 196.666 114.932C197.006 115.027 197.497 115.075 198.138 115.075C199.024 115.075 199.638 114.966 199.978 114.749C200.319 114.546 200.49 114.248 200.49 113.855C200.49 113.53 200.36 113.272 200.101 113.082C199.842 112.893 199.453 112.798 198.935 112.798H197.361C196.243 112.798 195.405 112.601 194.846 112.208C194.3 111.802 194.028 111.287 194.028 110.663C194.028 110.27 194.143 109.891 194.375 109.525C194.607 109.145 194.921 108.834 195.316 108.59C194.634 108.224 194.137 107.797 193.823 107.309C193.523 106.807 193.373 106.204 193.373 105.5C193.373 104.293 193.809 103.338 194.682 102.633C195.554 101.915 196.706 101.556 198.138 101.556C199.229 101.583 200.149 101.474 200.899 101.23C201.662 100.986 202.446 100.627 203.25 100.153L204.007 102.531ZM198.22 103.67C197.715 103.67 197.313 103.833 197.013 104.158C196.727 104.47 196.584 104.903 196.584 105.459C196.584 106.042 196.727 106.496 197.013 106.821C197.313 107.133 197.715 107.289 198.22 107.289C198.751 107.289 199.154 107.133 199.426 106.821C199.713 106.509 199.856 106.042 199.856 105.418C199.856 104.253 199.31 103.67 198.22 103.67Z" fill="#FF0000"/>
<path d="M224.47 98.608C226.338 98.608 227.79 98.9942 228.826 99.7667C229.862 100.539 230.38 101.684 230.38 103.202C230.38 104.788 229.869 105.987 228.846 106.801C227.838 107.6 226.481 108 224.777 108H223.243V112.696H219.89V98.608H224.47ZM224.491 105.601C225.282 105.601 225.881 105.418 226.29 105.052C226.713 104.673 226.924 104.056 226.924 103.202C226.924 101.725 226.093 100.986 224.429 100.986H223.243V105.601H224.491Z" fill="#FF0000"/>
<path d="M237.58 101.596C237.975 101.596 238.337 101.644 238.664 101.739L238.153 104.849C237.744 104.754 237.416 104.707 237.171 104.707C236.53 104.707 236.039 104.93 235.699 105.378C235.371 105.811 235.112 106.469 234.922 107.35V112.696H231.691V101.901H234.513L234.778 103.995C235.024 103.25 235.392 102.667 235.883 102.247C236.387 101.813 236.953 101.596 237.58 101.596Z" fill="#FF0000"/>
<path d="M243.129 101.901V112.696H239.898V101.901H243.129ZM241.493 96.2091C242.052 96.2091 242.509 96.3853 242.863 96.7377C243.231 97.0765 243.416 97.5102 243.416 98.0388C243.416 98.5673 243.231 99.0078 242.863 99.3602C242.509 99.699 242.052 99.8684 241.493 99.8684C240.934 99.8684 240.478 99.699 240.123 99.3602C239.769 99.0078 239.591 98.5673 239.591 98.0388C239.591 97.5102 239.769 97.0765 240.123 96.7377C240.478 96.3853 240.934 96.2091 241.493 96.2091Z" fill="#FF0000"/>
<path d="M255.015 101.901L251.6 112.696H247.776L244.279 101.901H247.796L249.719 110.257L251.723 101.901H255.015Z" fill="#FF0000"/>
<path d="M264.324 109.565C264.324 109.972 264.379 110.27 264.488 110.46C264.61 110.65 264.801 110.792 265.06 110.887L264.385 112.981C263.717 112.926 263.172 112.784 262.75 112.554C262.327 112.31 262 111.93 261.768 111.415C261.059 112.5 259.968 113.042 258.496 113.042C257.419 113.042 256.56 112.73 255.919 112.107C255.279 111.483 254.958 110.67 254.958 109.667C254.958 108.488 255.395 107.587 256.267 106.963C257.14 106.34 258.401 106.028 260.05 106.028H261.154V105.561C261.154 104.924 261.018 104.49 260.745 104.259C260.473 104.016 259.996 103.894 259.314 103.894C258.96 103.894 258.53 103.948 258.026 104.056C257.521 104.151 257.003 104.287 256.472 104.463L255.735 102.349C256.417 102.091 257.112 101.895 257.821 101.759C258.544 101.623 259.212 101.556 259.825 101.556C261.379 101.556 262.518 101.874 263.24 102.511C263.963 103.148 264.324 104.104 264.324 105.378V109.565ZM259.437 110.744C260.173 110.744 260.745 110.399 261.154 109.708V107.797H260.357C259.621 107.797 259.069 107.925 258.701 108.183C258.346 108.441 258.169 108.84 258.169 109.382C258.169 109.816 258.278 110.155 258.496 110.399C258.728 110.629 259.041 110.744 259.437 110.744Z" fill="#FF0000"/>
<path d="M273.707 112.188C273.312 112.459 272.848 112.669 272.317 112.818C271.799 112.967 271.281 113.042 270.763 113.042C268.39 113.028 267.204 111.727 267.204 109.138V104.138H265.671V101.901H267.204V99.5634L270.435 99.1975V101.901H272.93L272.583 104.138H270.435V109.098C270.435 109.599 270.517 109.958 270.681 110.175C270.844 110.392 271.103 110.501 271.458 110.501C271.826 110.501 272.214 110.385 272.623 110.155L273.707 112.188Z" fill="#FF0000"/>
<path d="M283.894 107.085C283.894 107.532 283.874 107.919 283.833 108.244H277.105C277.214 109.152 277.473 109.789 277.882 110.155C278.291 110.521 278.857 110.704 279.58 110.704C280.016 110.704 280.438 110.629 280.847 110.48C281.256 110.318 281.699 110.074 282.177 109.748L283.506 111.537C282.238 112.54 280.827 113.042 279.273 113.042C277.514 113.042 276.165 112.527 275.224 111.497C274.283 110.467 273.813 109.084 273.813 107.35C273.813 106.252 274.011 105.269 274.406 104.402C274.801 103.521 275.381 102.83 276.144 102.328C276.908 101.813 277.821 101.556 278.884 101.556C280.452 101.556 281.679 102.044 282.565 103.019C283.451 103.995 283.894 105.35 283.894 107.085ZM280.725 106.17C280.697 104.517 280.111 103.69 278.966 103.69C278.407 103.69 277.971 103.894 277.657 104.3C277.357 104.707 277.173 105.378 277.105 106.313H280.725V106.17Z" fill="#FF0000"/>
<path d="M299.314 98.608L298.967 100.986H293.977V104.361H298.333V106.699H293.977V110.297H299.314V112.696H290.623V98.608H299.314Z" fill="#FF0000"/>
<path d="M304.03 113.042C303.089 113.042 302.353 112.777 301.821 112.249C301.303 111.707 301.044 110.941 301.044 109.952V97.6118L304.275 97.2663V109.83C304.275 110.277 304.459 110.501 304.827 110.501C305.018 110.501 305.195 110.467 305.359 110.399L305.993 112.676C305.406 112.92 304.752 113.042 304.03 113.042Z" fill="#FF0000"/>
<path d="M316.851 97.6118V112.696H313.988L313.825 111.436C313.061 112.506 312.032 113.042 310.737 113.042C309.387 113.042 308.358 112.527 307.649 111.497C306.954 110.467 306.606 109.057 306.606 107.268C306.606 106.17 306.79 105.188 307.158 104.32C307.526 103.453 308.044 102.775 308.712 102.288C309.394 101.8 310.171 101.556 311.044 101.556C312.08 101.556 312.938 101.895 313.62 102.572V97.2663L316.851 97.6118ZM311.739 110.683C312.489 110.683 313.116 110.277 313.62 109.464V104.808C313.361 104.497 313.095 104.266 312.823 104.117C312.564 103.968 312.264 103.894 311.923 103.894C311.323 103.894 310.846 104.171 310.491 104.727C310.137 105.283 309.96 106.137 309.96 107.289C309.96 108.549 310.11 109.43 310.41 109.931C310.723 110.433 311.166 110.683 311.739 110.683Z" fill="#FF0000"/>
<path d="M328.847 107.085C328.847 107.532 328.826 107.919 328.786 108.244H322.058C322.167 109.152 322.426 109.789 322.835 110.155C323.244 110.521 323.81 110.704 324.532 110.704C324.968 110.704 325.391 110.629 325.8 110.48C326.209 110.318 326.652 110.074 327.129 109.748L328.458 111.537C327.19 112.54 325.779 113.042 324.225 113.042C322.467 113.042 321.117 112.527 320.176 111.497C319.236 110.467 318.765 109.084 318.765 107.35C318.765 106.252 318.963 105.269 319.358 104.402C319.754 103.521 320.333 102.83 321.097 102.328C321.86 101.813 322.773 101.556 323.837 101.556C325.405 101.556 326.632 102.044 327.518 103.019C328.404 103.995 328.847 105.35 328.847 107.085ZM325.677 106.17C325.65 104.517 325.064 103.69 323.919 103.69C323.36 103.69 322.923 103.894 322.61 104.3C322.31 104.707 322.126 105.378 322.058 106.313H325.677V106.17Z" fill="#FF0000"/>
<path d="M336.551 101.596C336.947 101.596 337.308 101.644 337.635 101.739L337.124 104.849C336.715 104.754 336.388 104.707 336.142 104.707C335.502 104.707 335.011 104.93 334.67 105.378C334.343 105.811 334.084 106.469 333.893 107.35V112.696H330.662V101.901H333.484L333.75 103.995C333.995 103.25 334.363 102.667 334.854 102.247C335.358 101.813 335.924 101.596 336.551 101.596Z" fill="#FF0000"/>
<path d="M341.753 113.042C340.812 113.042 340.076 112.777 339.544 112.249C339.026 111.707 338.767 110.941 338.767 109.952V97.6118L341.998 97.2663V109.83C341.998 110.277 342.182 110.501 342.55 110.501C342.741 110.501 342.919 110.467 343.082 110.399L343.716 112.676C343.13 112.92 342.475 113.042 341.753 113.042Z" fill="#FF0000"/>
<path d="M350.732 112.716C350.296 114.112 349.58 115.183 348.585 115.928C347.604 116.687 346.281 117.114 344.618 117.209L344.27 114.953C345.307 114.817 346.07 114.587 346.561 114.261C347.065 113.936 347.467 113.414 347.767 112.696H346.663L343.35 101.901H346.786L348.728 110.643L350.855 101.901H354.188L350.732 112.716Z" fill="#FF0000"/>
<path d="M366.026 98.2624C366.912 98.2624 367.696 98.3911 368.378 98.6486C369.073 98.9061 369.727 99.2924 370.341 99.8074L368.746 101.698C368.323 101.373 367.907 101.129 367.498 100.966C367.089 100.804 366.653 100.722 366.19 100.722C365.235 100.722 364.479 101.122 363.92 101.922C363.374 102.721 363.102 103.955 363.102 105.622C363.102 107.261 363.374 108.481 363.92 109.281C364.479 110.067 365.249 110.46 366.231 110.46C366.749 110.46 367.219 110.365 367.642 110.175C368.064 109.972 368.521 109.687 369.012 109.321L370.504 111.232C369.973 111.761 369.325 112.195 368.562 112.533C367.812 112.872 366.98 113.042 366.067 113.042C364.758 113.042 363.62 112.757 362.652 112.188C361.684 111.619 360.927 110.778 360.382 109.667C359.85 108.542 359.585 107.194 359.585 105.622C359.585 104.09 359.857 102.769 360.402 101.657C360.961 100.546 361.725 99.7057 362.693 99.1365C363.674 98.5538 364.785 98.2624 366.026 98.2624Z" fill="#FF0000"/>
<path d="M380.37 109.565C380.37 109.972 380.424 110.27 380.533 110.46C380.656 110.65 380.847 110.792 381.106 110.887L380.431 112.981C379.763 112.926 379.218 112.784 378.795 112.554C378.373 112.31 378.045 111.93 377.814 111.415C377.105 112.5 376.014 113.042 374.542 113.042C373.465 113.042 372.606 112.73 371.965 112.107C371.324 111.483 371.004 110.67 371.004 109.667C371.004 108.488 371.44 107.587 372.313 106.963C373.185 106.34 374.446 106.028 376.096 106.028H377.2V105.561C377.2 104.924 377.064 104.49 376.791 104.259C376.519 104.016 376.041 103.894 375.36 103.894C375.005 103.894 374.576 103.948 374.071 104.056C373.567 104.151 373.049 104.287 372.517 104.463L371.781 102.349C372.463 102.091 373.158 101.895 373.867 101.759C374.589 101.623 375.257 101.556 375.871 101.556C377.425 101.556 378.563 101.874 379.286 102.511C380.009 103.148 380.37 104.104 380.37 105.378V109.565ZM375.482 110.744C376.219 110.744 376.791 110.399 377.2 109.708V107.797H376.403C375.666 107.797 375.114 107.925 374.746 108.183C374.392 108.441 374.215 108.84 374.215 109.382C374.215 109.816 374.324 110.155 374.542 110.399C374.774 110.629 375.087 110.744 375.482 110.744Z" fill="#FF0000"/>
<path d="M388.833 101.596C389.228 101.596 389.589 101.644 389.917 101.739L389.405 104.849C388.996 104.754 388.669 104.707 388.424 104.707C387.783 104.707 387.292 104.93 386.951 105.378C386.624 105.811 386.365 106.469 386.174 107.35V112.696H382.943V101.901H385.765L386.031 103.995C386.277 103.25 386.645 102.667 387.135 102.247C387.64 101.813 388.206 101.596 388.833 101.596Z" fill="#FF0000"/>
<path d="M400 107.085C400 107.532 399.98 107.919 399.939 108.244H393.211C393.32 109.152 393.579 109.789 393.988 110.155C394.397 110.521 394.963 110.704 395.685 110.704C396.121 110.704 396.544 110.629 396.953 110.48C397.362 110.318 397.805 110.074 398.282 109.748L399.611 111.537C398.344 112.54 396.933 113.042 395.378 113.042C393.62 113.042 392.27 112.527 391.33 111.497C390.389 110.467 389.918 109.084 389.918 107.35C389.918 106.252 390.116 105.269 390.512 104.402C390.907 103.521 391.486 102.83 392.25 102.328C393.013 101.813 393.927 101.556 394.99 101.556C396.558 101.556 397.785 102.044 398.671 103.019C399.557 103.995 400 105.35 400 107.085ZM396.83 106.17C396.803 104.517 396.217 103.69 395.072 103.69C394.513 103.69 394.077 103.894 393.763 104.3C393.463 104.707 393.279 105.378 393.211 106.313H396.83V106.17Z" fill="#FF0000"/>
</g>
<defs>
<clipPath id="clip0">
<rect width="400" height="117.209" fill="white"/>
</clipPath>
</defs>
</svg>
