<svg title="Gerimed" width="44" height="85" viewBox="0 0 44 85" fill="none" xmlns="http://www.w3.org/2000/svg">
<path d="M16.5 84.5775H8L5.5 56.5775L0 53.5775L0.5 32.5775C0.5 32.5775 1 24.5775 3.5 21.0775C5.83973 17.8019 9.99455 16.677 14 17.0775C19 17.5775 22 22.5775 22 22.5775C22 22.5775 38.5 51.5 38.5 51.5775C38.5 51.655 40.5 52 41.5 52.5C41.5 52.5 42.5 53 43 54C43 54 43.7724 55.2579 43.7724 56.5V84.4113H41V65.4448C41 63.6389 41.1304 56.2049 41.1304 56.2049C41 55 41 55 40.5 54.5C40 54 39.5 54 38.5 54C37.382 54 36.4531 54.2652 36 56.0775C35.7575 57.0477 36.1336 57.5809 35.5 58.0775C34.7164 58.6917 33.4453 58.4681 33 57.5775C32.5 56.5775 33.5 54.0775 33.5 54.0775L23 39.5775L16.5 84.5775Z" fill="#0AAB5E"/>
<circle cx="22.416" cy="8.5" r="8.5" fill="#0AAB5E"/>
</svg>
